<svg xmlns="http://www.w3.org/2000/svg" viewBox="0 0 256 256" role="img" aria-labelledby="title desc">
  <title id="title">Thai Lessons Chiang Mai favicon</title>
  <desc id="desc">Minimal ivory academy badge with a midnight monogram, Chiang Mai mountain line, and warm gold accent.</desc>
  <defs>
    <linearGradient id="ivory" x1="0" y1="0" x2="1" y2="1">
      <stop offset="0" stop-color="#FFF8EA"/>
      <stop offset="0.52" stop-color="#F7E8C5"/>
      <stop offset="1" stop-color="#E7C982"/>
    </linearGradient>
    <linearGradient id="midnight" x1="0" y1="0" x2="1" y2="1">
      <stop offset="0" stop-color="#151A33"/>
      <stop offset="1" stop-color="#273566"/>
    </linearGradient>
    <filter id="softShadow" x="-20%" y="-20%" width="140%" height="140%">
      <feDropShadow dx="0" dy="14" stdDeviation="16" flood-color="#151A33" flood-opacity="0.18"/>
    </filter>
  </defs>
  <rect width="256" height="256" rx="56" fill="url(#midnight)"/>
  <rect x="18" y="18" width="220" height="220" rx="46" fill="url(#ivory)" filter="url(#softShadow)"/>
  <rect x="30" y="30" width="196" height="196" rx="38" fill="none" stroke="#151A33" stroke-opacity="0.14" stroke-width="2"/>
  <circle cx="190" cy="64" r="12" fill="#B8892B"/>
  <path d="M58 155 C78 132 94 126 112 143 C126 157 138 154 151 138 C168 118 188 120 204 143" fill="none" stroke="#151A33" stroke-width="7" stroke-linecap="round" stroke-linejoin="round"/>
  <path d="M66 177 C94 166 119 166 146 177 C169 186 188 185 204 178" fill="none" stroke="#B8892B" stroke-width="5" stroke-linecap="round"/>
  <text x="128" y="115" text-anchor="middle" font-family="Georgia, 'Times New Roman', serif" font-size="52" font-weight="700" fill="#151A33" letter-spacing="-2">TL</text>
  <path d="M86 202 H170" stroke="#151A33" stroke-width="4" stroke-linecap="round" opacity="0.22"/>
</svg>
