<svg xmlns="http://www.w3.org/2000/svg" viewBox="0 0 1200 630" role="img" aria-labelledby="title desc">
  <title id="title">Thai Lessons Chiang Mai</title>
  <desc id="desc">Premium social image for Thai Lessons Chiang Mai private Thai academy.</desc>
  <defs>
    <linearGradient id="bg" x1="0" y1="0" x2="1" y2="1">
      <stop offset="0" stop-color="#FFF8EA"/>
      <stop offset="0.55" stop-color="#F6E7C1"/>
      <stop offset="1" stop-color="#E3C077"/>
    </linearGradient>
    <linearGradient id="midnight" x1="0" y1="0" x2="1" y2="1">
      <stop offset="0" stop-color="#151A33"/>
      <stop offset="1" stop-color="#273566"/>
    </linearGradient>
  </defs>
  <rect width="1200" height="630" fill="url(#bg)"/>
  <circle cx="1030" cy="112" r="210" fill="#B8892B" opacity="0.14"/>
  <circle cx="120" cy="548" r="220" fill="#151A33" opacity="0.08"/>
  <g transform="translate(104 114) scale(1.56)">
    <rect width="256" height="256" rx="56" fill="url(#midnight)"/>
    <rect x="18" y="18" width="220" height="220" rx="46" fill="#FFF4D9"/>
    <rect x="30" y="30" width="196" height="196" rx="38" fill="none" stroke="#151A33" stroke-opacity="0.14" stroke-width="2"/>
    <circle cx="190" cy="64" r="12" fill="#B8892B"/>
    <path d="M58 155 C78 132 94 126 112 143 C126 157 138 154 151 138 C168 118 188 120 204 143" fill="none" stroke="#151A33" stroke-width="7" stroke-linecap="round" stroke-linejoin="round"/>
    <path d="M66 177 C94 166 119 166 146 177 C169 186 188 185 204 178" fill="none" stroke="#B8892B" stroke-width="5" stroke-linecap="round"/>
    <text x="128" y="115" text-anchor="middle" font-family="Georgia, 'Times New Roman', serif" font-size="52" font-weight="700" fill="#151A33" letter-spacing="-2">TL</text>
    <path d="M86 202 H170" stroke="#151A33" stroke-width="4" stroke-linecap="round" opacity="0.22"/>
  </g>
  <text x="570" y="218" font-family="Georgia, 'Times New Roman', serif" font-size="76" font-weight="700" fill="#151A33" letter-spacing="-3">Thai Lessons</text>
  <text x="570" y="306" font-family="Georgia, 'Times New Roman', serif" font-size="76" font-weight="700" fill="#151A33" letter-spacing="-3">Chiang Mai</text>
  <path d="M574 346 H1018" stroke="#B8892B" stroke-width="5" stroke-linecap="round"/>
  <text x="574" y="402" font-family="Avenir Next, Montserrat, Helvetica, Arial, sans-serif" font-size="25" font-weight="700" fill="#6F5A32" letter-spacing="5">PRIVATE THAI ACADEMY</text>
  <text x="574" y="478" font-family="Avenir Next, Montserrat, Helvetica, Arial, sans-serif" font-size="30" font-weight="600" fill="#151A33" opacity="0.74">Practical Thai for expats in Chiang Mai</text>
</svg>
